<?xml version="1.0" encoding="UTF-8" standalone="no"?>
<!-- Generator: Gravit.io -->
<svg xmlns="http://www.w3.org/2000/svg" xmlns:xlink="http://www.w3.org/1999/xlink" style="isolation:isolate" viewBox="454.726 259.797 19.456 34.805" width="19.456" height="34.805"><g id="null"><path d=" M 468.37 273.889 L 468.378 271.232 C 468.378 269.848 468.474 269.107 470.457 269.107 L 474.126 269.107 L 474.126 263.797 L 468.868 263.797 C 463.766 263.797 462.592 266.432 462.592 270.762 L 462.598 273.889 L 458.726 273.891 L 458.726 279.199 L 462.598 279.199 L 462.598 294.601 L 468.372 294.601 L 468.376 279.199 L 473.618 279.197 L 474.182 273.889 L 468.37 273.889 L 468.37 273.889 Z " fill="rgb(255,88,88)"/><path d=" M 464.37 269.889 L 464.378 267.232 C 464.378 265.848 464.474 265.107 466.457 265.107 L 470.126 265.107 L 470.126 259.797 L 464.868 259.797 C 459.766 259.797 458.592 262.432 458.592 266.762 L 458.598 269.889 L 454.726 269.891 L 454.726 275.199 L 458.598 275.199 L 458.598 290.601 L 464.372 290.601 L 464.376 275.199 L 469.618 275.197 L 470.182 269.889 L 464.37 269.889 L 464.37 269.889 Z " fill="rgb(255,255,255)"/></g></svg>