<?xml version="1.0" encoding="UTF-8" standalone="no"?>
<!-- Generator: Gravit.io -->
<svg xmlns="http://www.w3.org/2000/svg" xmlns:xlink="http://www.w3.org/1999/xlink" style="isolation:isolate" viewBox="357.072 262.226 30.782 29.945" width="30.782" height="29.945"><g id="null"><path d=" M 374.463 266.226 C 367.098 266.226 361.072 272.252 361.072 279.617 C 361.072 285.309 364.643 290.163 369.609 292.116 C 370.111 292.004 370.558 291.558 370.558 291 L 370.558 288.545 L 369.107 288.545 C 368.047 288.545 367.154 288.043 366.708 287.261 C 366.596 287.038 366.485 286.759 366.373 286.48 C 366.15 285.867 365.871 285.197 365.313 284.806 C 365.09 284.639 364.978 284.304 365.034 284.025 C 365.145 283.746 365.424 283.523 365.927 283.579 C 366.485 283.635 367.322 284.248 367.824 284.918 C 368.27 285.476 368.605 285.811 369.274 285.811 L 369.442 285.811 C 369.944 285.811 371.171 285.811 371.395 285.588 C 371.562 285.364 371.674 285.197 371.841 285.03 C 368.493 284.36 366.596 282.407 366.596 279.45 C 366.596 278.446 366.875 277.441 367.489 276.549 C 367.266 275.712 366.764 273.536 367.824 272.587 L 367.991 272.42 L 368.214 272.42 C 369.665 272.42 370.725 273.034 371.395 273.536 C 373.347 272.81 375.579 272.81 377.532 273.536 C 378.146 273.034 379.206 272.42 380.713 272.42 L 380.936 272.42 L 381.103 272.587 C 382.163 273.591 381.661 275.712 381.438 276.549 C 381.996 277.441 382.331 278.446 382.331 279.45 C 382.331 282.407 380.434 284.36 377.142 285.03 C 377.979 285.922 378.425 287.261 378.425 288.322 L 378.425 291.056 C 378.425 291.614 378.815 292.06 379.373 292.171 C 384.283 290.163 387.854 285.309 387.854 279.617 C 387.854 272.252 381.828 266.226 374.463 266.226 Z " fill="rgb(255,88,88)"/><path d=" M 370.463 262.226 C 363.098 262.226 357.072 268.252 357.072 275.617 C 357.072 281.309 360.643 286.163 365.609 288.116 C 366.111 288.004 366.558 287.558 366.558 287 L 366.558 284.545 L 365.107 284.545 C 364.047 284.545 363.154 284.043 362.708 283.261 C 362.596 283.038 362.485 282.759 362.373 282.48 C 362.15 281.867 361.871 281.197 361.313 280.806 C 361.09 280.639 360.978 280.304 361.034 280.025 C 361.145 279.746 361.424 279.523 361.927 279.579 C 362.485 279.635 363.322 280.248 363.824 280.918 C 364.27 281.476 364.605 281.811 365.274 281.811 L 365.442 281.811 C 365.944 281.811 367.171 281.811 367.395 281.588 C 367.562 281.364 367.674 281.197 367.841 281.03 C 364.493 280.36 362.596 278.407 362.596 275.45 C 362.596 274.446 362.875 273.441 363.489 272.549 C 363.266 271.712 362.764 269.536 363.824 268.587 L 363.991 268.42 L 364.214 268.42 C 365.665 268.42 366.725 269.034 367.395 269.536 C 369.347 268.81 371.579 268.81 373.532 269.536 C 374.146 269.034 375.206 268.42 376.713 268.42 L 376.936 268.42 L 377.103 268.587 C 378.163 269.591 377.661 271.712 377.438 272.549 C 377.996 273.441 378.331 274.446 378.331 275.45 C 378.331 278.407 376.434 280.36 373.142 281.03 C 373.979 281.922 374.425 283.261 374.425 284.322 L 374.425 287.056 C 374.425 287.614 374.815 288.06 375.373 288.171 C 380.283 286.163 383.854 281.309 383.854 275.617 C 383.854 268.252 377.828 262.226 370.463 262.226 Z " fill="rgb(255,255,255)"/></g></svg>