<?xml version="1.0" encoding="UTF-8" standalone="no"?>
<!-- Generator: Gravit.io -->
<svg xmlns="http://www.w3.org/2000/svg" xmlns:xlink="http://www.w3.org/1999/xlink" style="isolation:isolate" viewBox="55.51 251.898 35.815 36.73" width="35.815" height="36.73"><g id="null"><path d=" M 80.711 255.898 L 59.51 268.868 L 74.835 288.628 L 84.521 285.94 L 91.325 278.54 L 80.711 255.898 Z  M 80.178 266.07 L 71.16 271.587 L 72.945 274.022 L 81.531 268.769 L 85.526 276.748 L 81.644 281.23 L 81.587 281.244 L 75.891 282.64 L 73.74 279.709 L 76.074 278.281 L 76.911 279.418 L 79.933 278.376 L 82.189 276.188 L 80.482 272.773 L 72.313 277.77 L 67.113 270.691 L 78.886 263.489 L 80.178 266.07 Z " fill="rgb(255,88,88)"/><path d=" M 76.711 251.898 L 55.51 264.868 L 70.835 284.628 L 80.521 281.94 L 87.325 274.54 L 76.711 251.898 Z  M 76.178 262.07 L 67.16 267.587 L 68.945 270.022 L 77.531 264.769 L 81.526 272.748 L 77.644 277.23 L 77.587 277.244 L 71.891 278.64 L 69.74 275.709 L 72.074 274.281 L 72.911 275.418 L 75.933 274.376 L 78.189 272.188 L 76.482 268.773 L 68.313 273.77 L 63.113 266.691 L 74.886 259.489 L 76.178 262.07 Z " fill="rgb(255,255,255)"/></g></svg>