<?xml version="1.0" encoding="UTF-8" standalone="no"?>
<!-- Generator: Gravit.io -->
<svg xmlns="http://www.w3.org/2000/svg" xmlns:xlink="http://www.w3.org/1999/xlink" style="isolation:isolate" viewBox="636.536 262.297 29.805 29.805" width="29.805" height="29.805"><g id="null"><g id="null"><path d=" M 653.439 273.589 C 650.345 273.589 647.829 276.106 647.829 279.199 C 647.829 282.292 650.345 284.809 653.439 284.809 C 656.532 284.809 659.048 282.292 659.048 279.199 C 659.048 276.106 656.532 273.589 653.439 273.589 Z " fill="rgb(255,88,88)"/><path d=" M 659.048 266.297 L 647.829 266.297 C 643.808 266.297 640.536 269.568 640.536 273.589 L 640.536 284.809 C 640.536 288.83 643.808 292.101 647.829 292.101 L 659.048 292.101 C 663.069 292.101 666.341 288.83 666.341 284.809 L 666.341 273.589 C 666.341 269.568 663.069 266.297 659.048 266.297 Z  M 653.439 285.931 C 649.727 285.931 646.707 282.911 646.707 279.199 C 646.707 275.487 649.727 272.467 653.439 272.467 C 657.15 272.467 660.17 275.487 660.17 279.199 C 660.17 282.911 657.15 285.931 653.439 285.931 Z  M 660.731 273.028 C 660.324 273.037 659.945 272.826 659.738 272.475 C 659.532 272.124 659.532 271.69 659.738 271.339 C 659.944 270.988 660.324 270.776 660.731 270.785 C 661.34 270.798 661.828 271.297 661.828 271.906 C 661.828 272.516 661.341 273.015 660.731 273.028 Z " fill="rgb(255,88,88)"/></g><g id="null"><path d=" M 649.439 269.589 C 646.345 269.589 643.829 272.106 643.829 275.199 C 643.829 278.292 646.345 280.809 649.439 280.809 C 652.532 280.809 655.048 278.292 655.048 275.199 C 655.048 272.106 652.532 269.589 649.439 269.589 Z " fill="rgb(255,255,255)"/><path d=" M 655.048 262.297 L 643.829 262.297 C 639.808 262.297 636.536 265.568 636.536 269.589 L 636.536 280.809 C 636.536 284.83 639.808 288.101 643.829 288.101 L 655.048 288.101 C 659.069 288.101 662.341 284.83 662.341 280.809 L 662.341 269.589 C 662.341 265.568 659.069 262.297 655.048 262.297 Z  M 649.439 281.931 C 645.727 281.931 642.707 278.911 642.707 275.199 C 642.707 271.487 645.727 268.467 649.439 268.467 C 653.15 268.467 656.17 271.487 656.17 275.199 C 656.17 278.911 653.15 281.931 649.439 281.931 Z  M 656.731 269.028 C 656.324 269.037 655.945 268.826 655.738 268.475 C 655.532 268.124 655.532 267.69 655.738 267.339 C 655.944 266.988 656.324 266.776 656.731 266.785 C 657.34 266.798 657.828 267.297 657.828 267.906 C 657.828 268.516 657.341 269.015 656.731 269.028 Z " fill="rgb(255,255,255)"/></g></g></svg>