<?xml version="1.0" encoding="UTF-8" standalone="no"?>
<!-- Generator: Gravit.io -->
<svg xmlns="http://www.w3.org/2000/svg" xmlns:xlink="http://www.w3.org/1999/xlink" style="isolation:isolate" viewBox="541.054 265.199 28.611 24" width="28.611" height="24"><g id="null"><path d=" M 569.665 271.567 C 568.743 271.975 567.765 272.243 566.764 272.362 C 567.818 271.732 568.608 270.739 568.985 269.569 C 567.993 270.157 566.909 270.571 565.778 270.793 C 564.824 269.774 563.489 269.197 562.093 269.199 C 559.304 269.199 557.043 271.46 557.043 274.248 C 557.043 274.643 557.089 275.028 557.175 275.398 C 552.979 275.188 549.258 273.177 546.767 270.123 C 546.319 270.894 546.083 271.77 546.084 272.662 C 546.084 274.414 546.974 275.958 548.33 276.865 C 547.528 276.84 546.744 276.623 546.043 276.233 L 546.043 276.297 C 546.043 278.745 547.784 280.782 550.092 281.249 C 549.67 281.365 549.223 281.426 548.763 281.426 C 548.437 281.426 548.12 281.394 547.811 281.334 C 548.456 283.338 550.319 284.801 552.528 284.842 C 550.74 286.245 548.531 287.006 546.258 287.002 C 545.849 287.002 545.448 286.978 545.054 286.931 C 547.362 288.415 550.049 289.202 552.794 289.199 C 562.081 289.199 567.161 281.506 567.161 274.835 C 567.161 274.615 567.156 274.396 567.146 274.181 C 568.134 273.466 568.987 272.581 569.665 271.567 Z " fill="rgb(255,88,88)"/><path d=" M 565.665 267.567 C 564.743 267.975 563.765 268.243 562.764 268.362 C 563.818 267.732 564.608 266.739 564.985 265.569 C 563.993 266.157 562.909 266.571 561.778 266.793 C 560.824 265.774 559.489 265.197 558.093 265.199 C 555.304 265.199 553.043 267.46 553.043 270.248 C 553.043 270.643 553.089 271.028 553.175 271.398 C 548.979 271.188 545.258 269.177 542.767 266.123 C 542.319 266.894 542.083 267.77 542.084 268.662 C 542.084 270.414 542.974 271.958 544.33 272.865 C 543.528 272.84 542.744 272.623 542.043 272.233 L 542.043 272.297 C 542.043 274.745 543.784 276.782 546.092 277.249 C 545.67 277.365 545.223 277.426 544.763 277.426 C 544.437 277.426 544.12 277.394 543.811 277.334 C 544.456 279.338 546.319 280.801 548.528 280.842 C 546.74 282.245 544.531 283.006 542.258 283.002 C 541.849 283.002 541.448 282.978 541.054 282.931 C 543.362 284.415 546.049 285.202 548.794 285.199 C 558.081 285.199 563.161 277.506 563.161 270.835 C 563.161 270.615 563.156 270.396 563.146 270.181 C 564.134 269.466 564.987 268.581 565.665 267.567 Z " fill="rgb(255,255,255)"/></g></svg>